<mxfile host="app.diagrams.net" modified="2021-08-07T17:04:11.231Z" agent="5.0 (Windows NT 10.0; Win64; x64) AppleWebKit/537.36 (KHTML, like Gecko) Chrome/92.0.4515.107 Safari/537.36" etag="4fJsYnamog9nsd5g7ul2" version="14.9.5" type="github">
  <diagram id="ISVOrAwV5BkGgqWspOEV" name="Page-1">
    <mxGraphModel dx="955" dy="777" grid="1" gridSize="10" guides="1" tooltips="1" connect="1" arrows="1" fold="1" page="1" pageScale="1" pageWidth="850" pageHeight="1100" math="0" shadow="0">
      <root>
        <mxCell id="0" />
        <mxCell id="1" parent="0" />
        <mxCell id="HdH1LLvuItUqYZ40JCyz-36" style="edgeStyle=orthogonalEdgeStyle;rounded=1;orthogonalLoop=1;jettySize=auto;html=1;exitX=1;exitY=0.5;exitDx=0;exitDy=0;entryX=0.1;entryY=1;entryDx=0;entryDy=0;entryPerimeter=0;endArrow=none;endFill=0;" edge="1" parent="1" source="HdH1LLvuItUqYZ40JCyz-29" target="HdH1LLvuItUqYZ40JCyz-9">
          <mxGeometry relative="1" as="geometry" />
        </mxCell>
        <mxCell id="HdH1LLvuItUqYZ40JCyz-29" value="" style="whiteSpace=wrap;html=1;" vertex="1" parent="1">
          <mxGeometry x="400" y="600" width="240" height="170" as="geometry" />
        </mxCell>
        <mxCell id="HdH1LLvuItUqYZ40JCyz-23" style="edgeStyle=orthogonalEdgeStyle;rounded=1;orthogonalLoop=1;jettySize=auto;html=1;exitX=0.5;exitY=0.07;exitDx=0;exitDy=0;exitPerimeter=0;" edge="1" parent="1" source="HdH1LLvuItUqYZ40JCyz-1" target="HdH1LLvuItUqYZ40JCyz-9">
          <mxGeometry relative="1" as="geometry" />
        </mxCell>
        <mxCell id="HdH1LLvuItUqYZ40JCyz-1" value="" style="fontColor=#0066CC;verticalAlign=top;verticalLabelPosition=bottom;labelPosition=center;align=center;html=1;outlineConnect=0;fillColor=#CCCCCC;strokeColor=#6881B3;gradientColor=none;gradientDirection=north;strokeWidth=2;shape=mxgraph.networks.pc;" vertex="1" parent="1">
          <mxGeometry x="420" y="280" width="80" height="60" as="geometry" />
        </mxCell>
        <mxCell id="HdH1LLvuItUqYZ40JCyz-28" style="edgeStyle=none;rounded=0;orthogonalLoop=1;jettySize=auto;html=1;exitX=0.5;exitY=0.07;exitDx=0;exitDy=0;exitPerimeter=0;" edge="1" parent="1" source="HdH1LLvuItUqYZ40JCyz-2" target="HdH1LLvuItUqYZ40JCyz-9">
          <mxGeometry relative="1" as="geometry" />
        </mxCell>
        <mxCell id="HdH1LLvuItUqYZ40JCyz-2" value="" style="fontColor=#0066CC;verticalAlign=top;verticalLabelPosition=bottom;labelPosition=center;align=center;html=1;outlineConnect=0;fillColor=#CCCCCC;strokeColor=#6881B3;gradientColor=none;gradientDirection=north;strokeWidth=2;shape=mxgraph.networks.pc;" vertex="1" parent="1">
          <mxGeometry x="710" y="135" width="80" height="60" as="geometry" />
        </mxCell>
        <mxCell id="HdH1LLvuItUqYZ40JCyz-26" style="edgeStyle=orthogonalEdgeStyle;rounded=1;orthogonalLoop=1;jettySize=auto;html=1;exitX=0;exitY=0;exitDx=0;exitDy=0;exitPerimeter=0;" edge="1" parent="1" source="HdH1LLvuItUqYZ40JCyz-3">
          <mxGeometry relative="1" as="geometry">
            <mxPoint x="550" y="190" as="targetPoint" />
          </mxGeometry>
        </mxCell>
        <mxCell id="HdH1LLvuItUqYZ40JCyz-3" value="" style="fontColor=#0066CC;verticalAlign=top;verticalLabelPosition=bottom;labelPosition=center;align=center;html=1;outlineConnect=0;fillColor=#CCCCCC;strokeColor=#6881B3;gradientColor=none;gradientDirection=north;strokeWidth=2;shape=mxgraph.networks.pc;" vertex="1" parent="1">
          <mxGeometry x="690" y="370" width="75" height="60" as="geometry" />
        </mxCell>
        <mxCell id="HdH1LLvuItUqYZ40JCyz-25" style="edgeStyle=orthogonalEdgeStyle;rounded=1;orthogonalLoop=1;jettySize=auto;html=1;exitX=0.5;exitY=0.07;exitDx=0;exitDy=0;exitPerimeter=0;" edge="1" parent="1" source="HdH1LLvuItUqYZ40JCyz-4">
          <mxGeometry relative="1" as="geometry">
            <mxPoint x="570" y="190" as="targetPoint" />
          </mxGeometry>
        </mxCell>
        <mxCell id="HdH1LLvuItUqYZ40JCyz-4" value="" style="fontColor=#0066CC;verticalAlign=top;verticalLabelPosition=bottom;labelPosition=center;align=center;html=1;outlineConnect=0;fillColor=#CCCCCC;strokeColor=#6881B3;gradientColor=none;gradientDirection=north;strokeWidth=2;shape=mxgraph.networks.pc;" vertex="1" parent="1">
          <mxGeometry x="590" y="315" width="80" height="60" as="geometry" />
        </mxCell>
        <mxCell id="HdH1LLvuItUqYZ40JCyz-24" style="edgeStyle=orthogonalEdgeStyle;rounded=1;orthogonalLoop=1;jettySize=auto;html=1;exitX=0.5;exitY=0.07;exitDx=0;exitDy=0;exitPerimeter=0;" edge="1" parent="1" source="HdH1LLvuItUqYZ40JCyz-5" target="HdH1LLvuItUqYZ40JCyz-9">
          <mxGeometry relative="1" as="geometry" />
        </mxCell>
        <mxCell id="HdH1LLvuItUqYZ40JCyz-5" value="" style="fontColor=#0066CC;verticalAlign=top;verticalLabelPosition=bottom;labelPosition=center;align=center;html=1;outlineConnect=0;fillColor=#CCCCCC;strokeColor=#6881B3;gradientColor=none;gradientDirection=north;strokeWidth=2;shape=mxgraph.networks.pc;" vertex="1" parent="1">
          <mxGeometry x="495" y="345" width="70" height="60" as="geometry" />
        </mxCell>
        <mxCell id="HdH1LLvuItUqYZ40JCyz-27" style="edgeStyle=none;rounded=0;orthogonalLoop=1;jettySize=auto;html=1;" edge="1" parent="1" source="HdH1LLvuItUqYZ40JCyz-6" target="HdH1LLvuItUqYZ40JCyz-9">
          <mxGeometry relative="1" as="geometry" />
        </mxCell>
        <mxCell id="HdH1LLvuItUqYZ40JCyz-6" value="" style="fontColor=#0066CC;verticalAlign=top;verticalLabelPosition=bottom;labelPosition=center;align=center;html=1;outlineConnect=0;fillColor=#CCCCCC;strokeColor=#6881B3;gradientColor=none;gradientDirection=north;strokeWidth=2;shape=mxgraph.networks.pc;" vertex="1" parent="1">
          <mxGeometry x="710" y="250" width="70" height="60" as="geometry" />
        </mxCell>
        <mxCell id="HdH1LLvuItUqYZ40JCyz-17" style="edgeStyle=none;rounded=0;orthogonalLoop=1;jettySize=auto;html=1;" edge="1" parent="1" source="HdH1LLvuItUqYZ40JCyz-7" target="HdH1LLvuItUqYZ40JCyz-8">
          <mxGeometry relative="1" as="geometry" />
        </mxCell>
        <mxCell id="HdH1LLvuItUqYZ40JCyz-7" value="" style="html=1;outlineConnect=0;fillColor=#CCCCCC;strokeColor=#6881B3;gradientColor=none;gradientDirection=north;strokeWidth=2;shape=mxgraph.networks.cloud;fontColor=#ffffff;" vertex="1" parent="1">
          <mxGeometry x="30" y="60" width="90" height="50" as="geometry" />
        </mxCell>
        <mxCell id="HdH1LLvuItUqYZ40JCyz-32" style="edgeStyle=orthogonalEdgeStyle;rounded=1;orthogonalLoop=1;jettySize=auto;html=1;exitX=1;exitY=0;exitDx=0;exitDy=0;exitPerimeter=0;entryX=0;entryY=0.5;entryDx=0;entryDy=0;entryPerimeter=0;endArrow=none;endFill=0;" edge="1" parent="1" source="HdH1LLvuItUqYZ40JCyz-8" target="HdH1LLvuItUqYZ40JCyz-14">
          <mxGeometry relative="1" as="geometry" />
        </mxCell>
        <mxCell id="HdH1LLvuItUqYZ40JCyz-8" value="" style="fontColor=#0066CC;verticalAlign=top;verticalLabelPosition=bottom;labelPosition=center;align=center;html=1;outlineConnect=0;fillColor=#CCCCCC;strokeColor=#6881B3;gradientColor=none;gradientDirection=north;strokeWidth=2;shape=mxgraph.networks.firewall;" vertex="1" parent="1">
          <mxGeometry x="170" y="50" width="100" height="100" as="geometry" />
        </mxCell>
        <mxCell id="HdH1LLvuItUqYZ40JCyz-9" value="" style="fontColor=#0066CC;verticalAlign=top;verticalLabelPosition=bottom;labelPosition=center;align=center;html=1;outlineConnect=0;fillColor=#CCCCCC;strokeColor=#6881B3;gradientColor=none;gradientDirection=north;strokeWidth=2;shape=mxgraph.networks.switch;" vertex="1" parent="1">
          <mxGeometry x="480" y="150" width="100" height="30" as="geometry" />
        </mxCell>
        <mxCell id="HdH1LLvuItUqYZ40JCyz-22" style="edgeStyle=none;rounded=0;orthogonalLoop=1;jettySize=auto;html=1;" edge="1" parent="1" source="HdH1LLvuItUqYZ40JCyz-10" target="HdH1LLvuItUqYZ40JCyz-16">
          <mxGeometry relative="1" as="geometry" />
        </mxCell>
        <mxCell id="HdH1LLvuItUqYZ40JCyz-10" value="" style="fontColor=#0066CC;verticalAlign=top;verticalLabelPosition=bottom;labelPosition=center;align=center;html=1;outlineConnect=0;fillColor=#CCCCCC;strokeColor=#6881B3;gradientColor=none;gradientDirection=north;strokeWidth=2;shape=mxgraph.networks.switch;" vertex="1" parent="1">
          <mxGeometry x="230" y="290" width="100" height="30" as="geometry" />
        </mxCell>
        <mxCell id="HdH1LLvuItUqYZ40JCyz-11" value="" style="fontColor=#0066CC;verticalAlign=top;verticalLabelPosition=bottom;labelPosition=center;align=center;html=1;outlineConnect=0;fillColor=#CCCCCC;strokeColor=#6881B3;gradientColor=none;gradientDirection=north;strokeWidth=2;shape=mxgraph.networks.wireless_modem;" vertex="1" parent="1">
          <mxGeometry x="560" y="680" width="100" height="85" as="geometry" />
        </mxCell>
        <mxCell id="HdH1LLvuItUqYZ40JCyz-12" value="" style="fontColor=#0066CC;verticalAlign=top;verticalLabelPosition=bottom;labelPosition=center;align=center;html=1;outlineConnect=0;fillColor=#CCCCCC;strokeColor=#6881B3;gradientColor=none;gradientDirection=north;strokeWidth=2;shape=mxgraph.networks.firewall;" vertex="1" parent="1">
          <mxGeometry x="480" y="630" width="100" height="100" as="geometry" />
        </mxCell>
        <mxCell id="HdH1LLvuItUqYZ40JCyz-33" style="edgeStyle=orthogonalEdgeStyle;rounded=1;orthogonalLoop=1;jettySize=auto;html=1;exitX=0.95;exitY=0.05;exitDx=0;exitDy=0;exitPerimeter=0;endArrow=none;endFill=0;" edge="1" parent="1" source="HdH1LLvuItUqYZ40JCyz-13" target="HdH1LLvuItUqYZ40JCyz-8">
          <mxGeometry relative="1" as="geometry" />
        </mxCell>
        <mxCell id="HdH1LLvuItUqYZ40JCyz-13" value="" style="fontColor=#0066CC;verticalAlign=top;verticalLabelPosition=bottom;labelPosition=center;align=center;html=1;outlineConnect=0;fillColor=#CCCCCC;strokeColor=#6881B3;gradientColor=none;gradientDirection=north;strokeWidth=2;shape=mxgraph.networks.load_balancer;" vertex="1" parent="1">
          <mxGeometry x="190" y="195" width="100" height="30" as="geometry" />
        </mxCell>
        <mxCell id="HdH1LLvuItUqYZ40JCyz-14" value="" style="fontColor=#0066CC;verticalAlign=top;verticalLabelPosition=bottom;labelPosition=center;align=center;html=1;outlineConnect=0;fillColor=#CCCCCC;strokeColor=#6881B3;gradientColor=none;gradientDirection=north;strokeWidth=2;shape=mxgraph.networks.load_balancer;" vertex="1" parent="1">
          <mxGeometry x="300" y="50" width="100" height="30" as="geometry" />
        </mxCell>
        <mxCell id="HdH1LLvuItUqYZ40JCyz-19" style="edgeStyle=none;rounded=0;orthogonalLoop=1;jettySize=auto;html=1;exitX=1;exitY=0.5;exitDx=0;exitDy=0;exitPerimeter=0;entryX=0;entryY=0.5;entryDx=0;entryDy=0;entryPerimeter=0;" edge="1" parent="1" source="HdH1LLvuItUqYZ40JCyz-15" target="HdH1LLvuItUqYZ40JCyz-9">
          <mxGeometry relative="1" as="geometry" />
        </mxCell>
        <mxCell id="HdH1LLvuItUqYZ40JCyz-20" style="edgeStyle=none;rounded=0;orthogonalLoop=1;jettySize=auto;html=1;exitX=0.5;exitY=1;exitDx=0;exitDy=0;exitPerimeter=0;entryX=0.5;entryY=0;entryDx=0;entryDy=0;entryPerimeter=0;" edge="1" parent="1" source="HdH1LLvuItUqYZ40JCyz-15" target="HdH1LLvuItUqYZ40JCyz-10">
          <mxGeometry relative="1" as="geometry" />
        </mxCell>
        <mxCell id="HdH1LLvuItUqYZ40JCyz-34" style="edgeStyle=orthogonalEdgeStyle;rounded=1;orthogonalLoop=1;jettySize=auto;html=1;exitX=0.5;exitY=0;exitDx=0;exitDy=0;exitPerimeter=0;entryX=0.5;entryY=1;entryDx=0;entryDy=0;entryPerimeter=0;endArrow=none;endFill=0;" edge="1" parent="1" source="HdH1LLvuItUqYZ40JCyz-15" target="HdH1LLvuItUqYZ40JCyz-14">
          <mxGeometry relative="1" as="geometry" />
        </mxCell>
        <mxCell id="HdH1LLvuItUqYZ40JCyz-35" style="edgeStyle=orthogonalEdgeStyle;rounded=1;orthogonalLoop=1;jettySize=auto;html=1;exitX=0;exitY=0.5;exitDx=0;exitDy=0;exitPerimeter=0;entryX=1;entryY=0.5;entryDx=0;entryDy=0;entryPerimeter=0;endArrow=none;endFill=0;" edge="1" parent="1" source="HdH1LLvuItUqYZ40JCyz-15" target="HdH1LLvuItUqYZ40JCyz-13">
          <mxGeometry relative="1" as="geometry" />
        </mxCell>
        <mxCell id="HdH1LLvuItUqYZ40JCyz-15" value="" style="fontColor=#0066CC;verticalAlign=top;verticalLabelPosition=bottom;labelPosition=center;align=center;html=1;outlineConnect=0;fillColor=#CCCCCC;strokeColor=#6881B3;gradientColor=none;gradientDirection=north;strokeWidth=2;shape=mxgraph.networks.router;" vertex="1" parent="1">
          <mxGeometry x="300" y="110" width="100" height="30" as="geometry" />
        </mxCell>
        <mxCell id="HdH1LLvuItUqYZ40JCyz-16" value="" style="fontColor=#0066CC;verticalAlign=top;verticalLabelPosition=bottom;labelPosition=center;align=center;html=1;outlineConnect=0;fillColor=#CCCCCC;strokeColor=#6881B3;gradientColor=none;gradientDirection=north;strokeWidth=2;shape=mxgraph.networks.server;" vertex="1" parent="1">
          <mxGeometry x="230" y="390" width="90" height="100" as="geometry" />
        </mxCell>
      </root>
    </mxGraphModel>
  </diagram>
</mxfile>
